<svg height="512" viewBox="0 0 512 512" width="512" xmlns="http://www.w3.org/2000/svg"><g id="filled_outline" data-name="filled outline"><circle cx="256" cy="256" fill="#fdb62f" r="232"/><path d="m272 281.994v-59.373a28.627 28.627 0 0 0 -28.627-28.627h-11.373v28.531a70.283 70.283 0 0 1 -10.017 36.163l-13.983 23.306-40 16v104h32l32 8h96v-128z" fill="#fec9a3"/><path d="m272 281.994v2.928a55.367 55.367 0 0 1 -34.968 51.648 8 8 0 0 0 5.937 14.86 71.286 71.286 0 0 0 45.031-66.508v-2.928z" fill="#efb58b"/><path d="m120 297.994h48v104h-48z" fill="#4298d1"/><path d="m263.562 69.528 5.838 17.961a8 8 0 0 0 7.609 5.528h18.885a8 8 0 0 1 4.7 14.472l-15.278 11.1a8 8 0 0 0 -2.906 8.944l5.835 17.961a8 8 0 0 1 -12.31 8.944l-15.279-11.1a8 8 0 0 0 -9.405 0l-15.278 11.1a8 8 0 0 1 -12.311-8.944l5.836-17.961a8 8 0 0 0 -2.906-8.944l-15.279-11.1a8 8 0 0 1 4.7-14.472h18.887a8 8 0 0 0 7.608-5.528l5.836-17.961a8 8 0 0 1 15.218 0z" fill="#fbd675"/><path d="m143.655 125.528 5.836 17.961a8 8 0 0 0 7.608 5.528h18.886a8 8 0 0 1 4.7 14.472l-15.279 11.1a8 8 0 0 0 -2.906 8.944l5.836 17.961a8 8 0 0 1 -12.311 8.944l-15.278-11.1a8 8 0 0 0 -9.405 0l-15.279 11.1a8 8 0 0 1 -12.31-8.944l5.835-17.961a8 8 0 0 0 -2.906-8.944l-15.278-11.1a8 8 0 0 1 4.7-14.472h18.885a8 8 0 0 0 7.609-5.528l5.836-17.961a8 8 0 0 1 15.221 0z" fill="#fbd675"/><path d="m383.655 125.528 5.836 17.961a8 8 0 0 0 7.608 5.528h18.886a8 8 0 0 1 4.7 14.472l-15.279 11.1a8 8 0 0 0 -2.906 8.944l5.836 17.961a8 8 0 0 1 -12.311 8.944l-15.278-11.1a8 8 0 0 0 -9.405 0l-15.279 11.1a8 8 0 0 1 -12.31-8.944l5.835-17.961a8 8 0 0 0 -2.906-8.944l-15.278-11.1a8 8 0 0 1 4.7-14.472h18.885a8 8 0 0 0 7.609-5.528l5.836-17.961a8 8 0 0 1 15.221 0z" fill="#fbd675"/><path d="m412.992 360a8 8 0 0 1 -6.812-12.18 175.64 175.64 0 0 0 25.82-91.82 179.013 179.013 0 0 0 -1.484-22.969 8 8 0 1 1 15.859-2.062 193.977 193.977 0 0 1 1.625 25.031 191.6 191.6 0 0 1 -28.18 100.18 7.99 7.99 0 0 1 -6.828 3.82z" fill="#ec9e15"/><path d="m86.617 336a8 8 0 0 1 -7.359-4.867 190.874 190.874 0 0 1 -15.258-75.133 193.977 193.977 0 0 1 1.625-25.031 8 8 0 1 1 15.859 2.062 179.013 179.013 0 0 0 -1.484 22.969 175 175 0 0 0 13.977 68.867 8 8 0 0 1 -7.36 11.133z" fill="#ec9e15"/><rect fill="#efb58b" height="32" rx="16" width="56" x="296" y="281.994"/><rect fill="#efb58b" height="32" rx="16" width="56" x="296" y="313.994"/><rect fill="#efb58b" height="32" rx="16" width="56" x="296" y="345.994"/><rect fill="#efb58b" height="32" rx="16" width="56" x="288" y="377.994"/><g fill="#fec9a3"><rect height="32" rx="16" width="56" x="304" y="281.994"/><rect height="32" rx="16" width="56" x="304" y="313.994"/><rect height="32" rx="16" width="56" x="304" y="345.994"/><rect height="32" rx="16" width="56" x="296" y="377.994"/></g><path d="m344 273.992h-24a23.865 23.865 0 0 0 -5.14.585 7.919 7.919 0 0 0 -2.86-.577h-32v-51.359a36.684 36.684 0 0 0 -36.641-36.641h-11.359a8 8 0 0 0 -8 8v28.562a62.323 62.323 0 0 1 -8.859 32.032l-12.616 20.979-36.048 14.419h-46.477a8 8 0 0 0 -8 8v104a8 8 0 0 0 8 8h47.961c.014 0 .025.008.039.008h31.016l31.046 7.758a7.71 7.71 0 0 0 1.938.242h72a7.924 7.924 0 0 0 2.89-.583 23.916 23.916 0 0 0 5.11.575h24a24.026 24.026 0 0 0 24-24 23.708 23.708 0 0 0 -3.211-11.766 23.767 23.767 0 0 0 4.969-36.234 23.627 23.627 0 0 0 0-32 23.9 23.9 0 0 0 -17.758-40zm-184 120h-32v-88h32zm142.242-48a23.438 23.438 0 0 0 -3.031 27.767 23.948 23.948 0 0 0 -11.211 20.233 23.7 23.7 0 0 0 1.477 8.008h-56.493l-31.046-7.758a7.71 7.71 0 0 0 -1.938-.242h-24v-90.586l34.969-13.984c.105-.042.17-.133.273-.179a7.9 7.9 0 0 0 2.342-1.534c.061-.06.1-.134.158-.2a7.967 7.967 0 0 0 1.117-1.4l14.008-23.3a78.464 78.464 0 0 0 11.133-40.255v-20.562h3.359a20.662 20.662 0 0 1 20.641 20.641v64.273a55.368 55.368 0 0 1 -34.969 51.648 8 8 0 0 0 5.938 14.86 71.156 71.156 0 0 0 44.8-63.422h17.7a23.244 23.244 0 0 0 4.77 23.992 23.627 23.627 0 0 0 0 32zm33.758 56h-24a8 8 0 0 1 0-16h24a8 8 0 0 1 0 16zm8-32h-24a8 8 0 0 1 0-16h24a8 8 0 0 1 0 16zm0-32h-24a8 8 0 0 1 0-16h24a8 8 0 0 1 0 16zm0-32h-24a8 8 0 0 1 0-16h24a8 8 0 0 1 0 16z"/><path d="m206.609 113.969 15.282 11.093-5.836 17.954a16 16 0 0 0 24.625 17.89l15.273-11.1 15.281 11.1a15.756 15.756 0 0 0 18.805.008 15.767 15.767 0 0 0 5.813-17.891l-5.836-17.961 15.284-11.093a16.006 16.006 0 0 0 -9.406-28.953l-18.883.007-5.836-17.961v-.007a16 16 0 0 0 -30.438.007l-5.837 17.954h-18.884a16.008 16.008 0 0 0 -9.407 28.953zm28.291-12.953a15.965 15.965 0 0 0 15.219-11.055l5.8-18.055a.843.843 0 0 1 .039.1l5.836 17.953a15.967 15.967 0 0 0 15.219 11.055h18.883l-15.296 11.111a15.964 15.964 0 0 0 -5.8 17.875l5.844 17.969-15.289-11.11a15.984 15.984 0 0 0 -18.8.008l-15.274 11.094 5.828-17.961a15.968 15.968 0 0 0 -5.812-17.891l-15.281-11.093z"/><path d="m136.047 205.805 15.273 11.109a16 16 0 0 0 24.625-17.891l-5.836-17.961 15.282-11.1a16 16 0 0 0 -9.407-28.945l-18.882.007-5.836-17.961v-.007a16 16 0 0 0 -30.438.007l-5.836 17.954h-18.883a16.006 16.006 0 0 0 -9.409 28.952l15.281 11.093-5.836 17.954a15.774 15.774 0 0 0 5.813 17.9 15.756 15.756 0 0 0 18.805-.008zm-24.656-37.7-15.282-11.089h18.883a15.967 15.967 0 0 0 15.219-11.055l5.8-18.055s.015.032.039.1l5.836 17.953a15.965 15.965 0 0 0 15.214 11.057h18.882l-15.281 11.1a15.953 15.953 0 0 0 -5.81 17.884l5.836 17.969-15.282-11.11a15.983 15.983 0 0 0 -18.8.008l-15.274 11.094 5.829-17.961a15.988 15.988 0 0 0 -5.809-17.891z"/><path d="m391.266 123.062v-.007a16 16 0 0 0 -30.438.007l-5.836 17.954h-18.883a16.006 16.006 0 0 0 -9.406 28.953l15.281 11.093-5.836 17.954a15.774 15.774 0 0 0 5.813 17.9 15.756 15.756 0 0 0 18.805-.008l15.281-11.1 15.273 11.109a16 16 0 0 0 24.625-17.891l-5.836-17.961 15.282-11.1a16 16 0 0 0 -9.407-28.945l-18.882.007zm9.437 45.055a15.953 15.953 0 0 0 -5.812 17.883l5.836 17.969-15.282-11.11a15.983 15.983 0 0 0 -18.8.008l-15.274 11.094 5.829-17.961a15.988 15.988 0 0 0 -5.812-17.891l-15.282-11.093h18.883a15.967 15.967 0 0 0 15.219-11.055l5.8-18.055s.015.032.039.1l5.836 17.953a15.965 15.965 0 0 0 15.217 11.057h18.882z"/><path d="m256 16c-132.336 0-240 107.664-240 240s107.664 240 240 240 240-107.664 240-240-107.664-240-240-240zm0 464c-123.516 0-224-100.484-224-224s100.484-224 224-224 224 100.484 224 224-100.484 224-224 224z"/><path d="m432 256a175.64 175.64 0 0 1 -25.82 91.82 8 8 0 1 0 13.64 8.36 191.6 191.6 0 0 0 28.18-100.18 193.977 193.977 0 0 0 -1.625-25.031 8 8 0 1 0 -15.859 2.062 179.013 179.013 0 0 1 1.484 22.969z"/><path d="m80 256a179.013 179.013 0 0 1 1.484-22.969 8 8 0 1 0 -15.859-2.062 193.977 193.977 0 0 0 -1.625 25.031 190.874 190.874 0 0 0 15.258 75.133 8 8 0 0 0 14.719-6.266 175 175 0 0 1 -13.977-68.867z"/></g></svg>